<?xml version="1.0" encoding="utf-8"?>
<!-- Generator: Adobe Illustrator 21.1.0, SVG Export Plug-In . SVG Version: 6.00 Build 0)  -->
<svg version="1.1" id="Layer_1" xmlns="http://www.w3.org/2000/svg" xmlns:xlink="http://www.w3.org/1999/xlink" x="0px" y="0px"
	 viewBox="0 0 307 291" style="enable-background:new 0 0 307 291;" xml:space="preserve">
<style type="text/css">
	.st0{fill:#FFFFFF;}
</style>
<g>
	<polygon class="st0" points="77.1,185.9 0.8,111.6 106.2,96.3 153.3,0.9 200.4,96.3 305.7,111.6 229.5,185.9 247.5,290.8 
		153.3,241.3 59.1,290.8 	"/>
	<path d="M153.3,1.8l46.7,94.5l0.2,0.4l0.4,0.1l104.3,15.2l-75.5,73.6l-0.3,0.3l0.1,0.4l17.8,103.9L153.6,241l-0.4-0.2l-0.4,0.2
		l-93.3,49.1l17.8-103.9l0.1-0.4l-0.3-0.3L1.7,111.9L106,96.7l0.4-0.1l0.2-0.4L153.3,1.8 M153.3,0l-47.4,96L0,111.3L76.6,186
		L58.5,291.5l94.7-49.8l94.7,49.8L229.9,186l76.6-74.7L200.6,96L153.3,0L153.3,0z"/>
</g>
</svg>
